<?xml version="1.0" encoding="UTF-8"?><svg id="Camada_1" xmlns="http://www.w3.org/2000/svg" viewBox="0 0 500 200"><defs><style>.cls-1{stroke-miterlimit:10;stroke-width:2px;}.cls-1,.cls-2{fill:none;stroke:#00e5ff;}.cls-2{stroke-linecap:round;stroke-linejoin:round;stroke-width:5px;}.cls-3,.cls-4{fill:#00e5ff;}.cls-4{font-family:Nunito-Bold, Nunito;font-size:101.32px;}</style></defs><g><circle class="cls-1" cx="79.33" cy="100" r="58.07"/><path class="cls-2" d="M52.43,88.14c4.22-11.43,14.72-19.52,27.02-19.52s22.8,8.09,27.02,19.52"/><path class="cls-3" d="M54.13,92.18h0c1.56,0,2.82,1.26,2.82,2.82v28.21c0,1.56-1.26,2.82-2.82,2.82h0c-7.69,0-13.93-6.24-13.93-13.93v-5.99c0-7.69,6.24-13.93,13.93-13.93Z"/><path class="cls-3" d="M115.64,92.18h0c1.56,0,2.82,1.26,2.82,2.82v28.21c0,1.56-1.26,2.82-2.82,2.82h0c-7.69,0-13.93-6.24-13.93-13.93v-5.99c0-7.69,6.24-13.93,13.93-13.93Z" transform="translate(220.18 218.21) rotate(-180)"/></g><text class="cls-4" transform="translate(164.69 135.71)"><tspan x="0" y="0">MUSIC</tspan></text></svg>