<svg width="48" height="48" viewBox="0 0 48 48" fill="none" xmlns="http://www.w3.org/2000/svg">
<path d="M7 44C6.2 44 5.5 43.7 4.9 43.1C4.3 42.5 4 41.8 4 41V15.45C4 14.7167 4.25 14.075 4.75 13.525C5.25 12.975 5.83333 12.5667 6.5 12.3L31.3 2.3L32.25 4.8L14.3 12H41C41.8 12 42.5 12.3 43.1 12.9C43.7 13.5 44 14.2 44 15V41C44 41.8 43.7 42.5 43.1 43.1C42.5 43.7 41.8 44 41 44H7ZM7 41H41V25.5H7V41ZM15.95 37.85C17.3167 37.85 18.4667 37.3833 19.4 36.45C20.3333 35.5167 20.8 34.3667 20.8 33C20.8 31.6333 20.3333 30.4833 19.4 29.55C18.4667 28.6167 17.3167 28.15 15.95 28.15C14.5833 28.15 13.4333 28.6167 12.5 29.55C11.5667 30.4833 11.1 31.6333 11.1 33C11.1 34.3667 11.5667 35.5167 12.5 36.45C13.4333 37.3833 14.5833 37.85 15.95 37.85ZM7 22.5H33V19.5H36V22.5H41V15H7V22.5ZM7 41V25.5V41Z" fill="white"/>
</svg>
