<svg width="48" height="48" viewBox="0 0 48 48" fill="none" xmlns="http://www.w3.org/2000/svg">
<path d="M35.0001 34.5001V28.0001C35.0001 27.5668 35.1418 27.2084 35.4251 26.9251C35.7084 26.6418 36.0668 26.5001 36.5001 26.5001C36.9334 26.5001 37.2918 26.6418 37.5751 26.9251C37.8584 27.2084 38.0001 27.5501 38.0001 27.9501V36.0001C38.0001 36.4334 37.8584 36.7918 37.5751 37.0751C37.2918 37.3584 36.9334 37.5001 36.5001 37.5001H11.8001L15.0001 40.7001C15.3334 41.0334 15.5001 41.4084 15.5001 41.8251C15.5001 42.2418 15.3501 42.6001 15.0501 42.9001C14.7501 43.2001 14.4001 43.3584 14.0001 43.3751C13.6001 43.3918 13.2501 43.2501 12.9501 42.9501L7.0501 37.0501C6.7501 36.7501 6.6001 36.4001 6.6001 36.0001C6.6001 35.6001 6.7501 35.2501 7.0501 34.9501L12.9001 29.1001C13.2001 28.8001 13.5584 28.6501 13.9751 28.6501C14.3918 28.6501 14.7501 28.8001 15.0501 29.1001C15.3501 29.4001 15.5001 29.7584 15.5001 30.1751C15.5001 30.5918 15.3501 30.9501 15.0501 31.2501L11.8001 34.5001H35.0001ZM13.0001 13.5001V20.0001C13.0001 20.4334 12.8584 20.7918 12.5751 21.0751C12.2918 21.3584 11.9334 21.5001 11.5001 21.5001C11.0668 21.5001 10.7084 21.3584 10.4251 21.0751C10.1418 20.7918 10.0001 20.4501 10.0001 20.0501V12.0001C10.0001 11.5668 10.1418 11.2084 10.4251 10.9251C10.7084 10.6418 11.0668 10.5001 11.5001 10.5001H36.2001L33.0001 7.3001C32.7001 7.0001 32.5418 6.63343 32.5251 6.20009C32.5084 5.76676 32.6501 5.4001 32.9501 5.1001C33.2501 4.80009 33.6001 4.64176 34.0001 4.6251C34.4001 4.60843 34.7501 4.7501 35.0501 5.0501L40.9501 10.9501C41.2501 11.2501 41.4001 11.6001 41.4001 12.0001C41.4001 12.4001 41.2501 12.7501 40.9501 13.0501L35.1001 18.9001C34.8001 19.2001 34.4418 19.3501 34.0251 19.3501C33.6084 19.3501 33.2501 19.2001 32.9501 18.9001C32.6501 18.6001 32.5001 18.2418 32.5001 17.8251C32.5001 17.4084 32.6501 17.0501 32.9501 16.7501L36.2001 13.5001H13.0001Z" fill="#6B7AB7"/>
</svg>
