<svg width="48" height="48" viewBox="0 0 48 48" fill="none" xmlns="http://www.w3.org/2000/svg">
<path d="M19.7999 21.8L8.6499 10.65C8.3499 10.35 8.1999 9.99162 8.1999 9.57495C8.1999 9.15828 8.3499 8.79995 8.6499 8.49995C8.91657 8.23328 9.26657 8.09995 9.6999 8.09995C10.1332 8.09995 10.4832 8.23328 10.7499 8.49995L21.9499 19.65L19.7999 21.8ZM30.5999 40.5C30.1666 40.5 29.8082 40.3583 29.5249 40.075C29.2416 39.7916 29.0999 39.4333 29.0999 39C29.0999 38.5666 29.2416 38.2083 29.5249 37.9249C29.8082 37.6416 30.1666 37.5 30.5999 37.5H35.3499L26.1499 28.35L28.2499 26.2L37.5499 35.4V30.5499C37.5499 30.1166 37.6916 29.7583 37.9749 29.475C38.2582 29.1916 38.6166 29.0499 39.0499 29.0499C39.4832 29.0499 39.8416 29.1916 40.1249 29.475C40.4082 29.7583 40.5499 30.1166 40.5499 30.5499V39C40.5499 39.4333 40.4082 39.7916 40.1249 40.075C39.8416 40.3583 39.4832 40.5 39.0499 40.5H30.5999ZM8.5999 39.4C8.2999 39.1333 8.1499 38.7916 8.1499 38.375C8.1499 37.9583 8.2999 37.5999 8.5999 37.2999L35.4499 10.45H30.5999C30.1666 10.45 29.8082 10.3083 29.5249 10.025C29.2416 9.74162 29.0999 9.38328 29.0999 8.94995C29.0999 8.51662 29.2416 8.15828 29.5249 7.87495C29.8082 7.59162 30.1666 7.44995 30.5999 7.44995H39.0499C39.4832 7.44995 39.8416 7.59162 40.1249 7.87495C40.4082 8.15828 40.5499 8.51662 40.5499 8.94995V17.4C40.5499 17.8333 40.4082 18.1916 40.1249 18.475C39.8416 18.7583 39.4832 18.9 39.0499 18.9C38.6166 18.9 38.2582 18.7583 37.9749 18.475C37.6916 18.1916 37.5499 17.8333 37.5499 17.4V12.6L10.6999 39.45C10.4332 39.7166 10.0916 39.8499 9.6749 39.8499C9.25824 39.8499 8.8999 39.7 8.5999 39.4V39.4Z" fill="#6B7AB7"/>
</svg>
