<svg width="48" height="48" viewBox="0 0 48 48" fill="none" xmlns="http://www.w3.org/2000/svg">
<path d="M35.5 36C35.0667 36 34.7083 35.8583 34.425 35.575C34.1417 35.2917 34 34.9333 34 34.5V13.5C34 13.0667 34.1417 12.7083 34.425 12.425C34.7083 12.1417 35.0667 12 35.5 12C35.9333 12 36.2917 12.1417 36.575 12.425C36.8583 12.7083 37 13.0667 37 13.5V34.5C37 34.9333 36.8583 35.2917 36.575 35.575C36.2917 35.8583 35.9333 36 35.5 36ZM13.35 34.35C12.85 34.7167 12.3333 34.75 11.8 34.45C11.2667 34.15 11 33.7167 11 33.15V14.85C11 14.25 11.2667 13.8083 11.8 13.525C12.3333 13.2417 12.85 13.2833 13.35 13.65L26.5 22.75C26.9333 23.05 27.15 23.4667 27.15 24C27.15 24.5333 26.9333 24.95 26.5 25.25L13.35 34.35ZM14 30.25L23.05 24L14 17.75V30.25Z" fill="white"/>
</svg>
