<svg width="48" height="48" viewBox="0 0 48 48" fill="none" xmlns="http://www.w3.org/2000/svg">
<path d="M12.5 36C12.0667 36 11.7083 35.8583 11.425 35.575C11.1417 35.2917 11 34.9333 11 34.5V13.5C11 13.0667 11.1417 12.7083 11.425 12.425C11.7083 12.1417 12.0667 12 12.5 12C12.9333 12 13.2917 12.1417 13.575 12.425C13.8583 12.7083 14 13.0667 14 13.5V34.5C14 34.9333 13.8583 35.2917 13.575 35.575C13.2917 35.8583 12.9333 36 12.5 36ZM34.65 34.35L21.5 25.25C21.0667 24.95 20.85 24.5333 20.85 24C20.85 23.4667 21.0667 23.05 21.5 22.75L34.65 13.65C35.15 13.2833 35.6667 13.2417 36.2 13.525C36.7333 13.8083 37 14.25 37 14.85V33.15C37 33.75 36.7333 34.1917 36.2 34.475C35.6667 34.7583 35.15 34.7167 34.65 34.35ZM34 30.25V17.75L24.95 24L34 30.25Z" fill="white"/>
</svg>
