<svg width="48" height="48" viewBox="0 0 48 48" fill="none" xmlns="http://www.w3.org/2000/svg">
<path d="M30.1 40.8501C29.5667 41.0167 29.0833 40.9334 28.65 40.6001C28.2167 40.2667 28 39.8167 28 39.2501C28 38.9834 28.075 38.7417 28.225 38.5251C28.375 38.3084 28.5833 38.1667 28.85 38.1001C31.8833 37.0334 34.3333 35.2167 36.2 32.6501C38.0667 30.0834 39 27.1834 39 23.9501C39 20.7167 38.0667 17.8084 36.2 15.2251C34.3333 12.6417 31.8833 10.8334 28.85 9.80007C28.5833 9.73341 28.375 9.58341 28.225 9.35007C28.075 9.11674 28 8.86674 28 8.60007C28 8.03341 28.225 7.59174 28.675 7.27507C29.125 6.95841 29.6 6.88341 30.1 7.05007C33.6667 8.31674 36.5417 10.4917 38.725 13.5751C40.9083 16.6584 42 20.1167 42 23.9501C42 27.7834 40.9083 31.2417 38.725 34.3251C36.5417 37.4084 33.6667 39.5834 30.1 40.8501ZM7.5 30.0001C7.06667 30.0001 6.70833 29.8584 6.425 29.5751C6.14167 29.2917 6 28.9334 6 28.5001V19.5001C6 19.0667 6.14167 18.7084 6.425 18.4251C6.70833 18.1417 7.06667 18.0001 7.5 18.0001H14L21.45 10.5501C21.9167 10.0834 22.4583 9.97507 23.075 10.2251C23.6917 10.4751 24 10.9334 24 11.6001V36.4001C24 37.0667 23.6917 37.5251 23.075 37.7751C22.4583 38.0251 21.9167 37.9167 21.45 37.4501L14 30.0001H7.5ZM27 32.4001V15.5501C28.8 16.1167 30.25 17.1834 31.35 18.7501C32.45 20.3167 33 22.0667 33 24.0001C33 25.9667 32.45 27.7167 31.35 29.2501C30.25 30.7834 28.8 31.8334 27 32.4001ZM21 15.6001L15.35 21.0001H9V27.0001H15.35L21 32.4501V15.6001Z" fill="white"/>
</svg>
